<svg width="37" height="40" viewBox="0 0 37 40" fill="none" xmlns="http://www.w3.org/2000/svg">
<path d="M5.91402 37H1.10702V29.663H5.91402V30.477H2.02002V32.842H5.83702V33.656H2.02002V36.186H5.91402V37ZM11.7367 37H10.7797L9.18472 34.822L7.58972 37H6.64372L8.67872 34.272L6.75372 31.687H7.71072L9.18472 33.711L10.6587 31.687H11.6157L9.69072 34.272L11.7367 37ZM15.3043 37.132C14.5563 37.132 13.9587 36.8203 13.5113 36.197V39.024H12.6863V31.687H13.5113V32.479C13.7093 32.2003 13.966 31.9767 14.2813 31.808C14.5967 31.6393 14.9377 31.555 15.3043 31.555C16.0083 31.555 16.5767 31.808 17.0093 32.314C17.4493 32.8127 17.6693 33.4873 17.6693 34.338C17.6693 35.1887 17.4493 35.867 17.0093 36.373C16.5767 36.879 16.0083 37.132 15.3043 37.132ZM15.0953 36.395C15.616 36.395 16.0303 36.2043 16.3383 35.823C16.6463 35.4343 16.8003 34.9393 16.8003 34.338C16.8003 33.7367 16.6463 33.2453 16.3383 32.864C16.0303 32.4827 15.616 32.292 15.0953 32.292C14.78 32.292 14.472 32.3763 14.1713 32.545C13.878 32.7063 13.658 32.9043 13.5113 33.139V35.537C13.658 35.779 13.878 35.9843 14.1713 36.153C14.472 36.3143 14.78 36.395 15.0953 36.395ZM19.8063 37H18.9813V29.663H19.8063V37ZM25.676 36.329C25.1993 36.8643 24.565 37.132 23.773 37.132C22.981 37.132 22.343 36.8643 21.859 36.329C21.3823 35.7937 21.144 35.13 21.144 34.338C21.144 33.546 21.3823 32.886 21.859 32.358C22.343 31.8227 22.981 31.555 23.773 31.555C24.565 31.555 25.1993 31.8227 25.676 32.358C26.16 32.886 26.402 33.546 26.402 34.338C26.402 35.13 26.16 35.7937 25.676 36.329ZM22.475 35.801C22.7976 36.197 23.2303 36.395 23.773 36.395C24.3156 36.395 24.7446 36.197 25.06 35.801C25.3753 35.3977 25.533 34.91 25.533 34.338C25.533 33.766 25.3753 33.282 25.06 32.886C24.7446 32.49 24.3156 32.292 23.773 32.292C23.2303 32.292 22.7976 32.4937 22.475 32.897C22.1596 33.293 22.002 33.7733 22.002 34.338C22.002 34.91 22.1596 35.3977 22.475 35.801ZM28.5719 37H27.7469V31.687H28.5719V32.545C29.0632 31.8997 29.6535 31.577 30.3429 31.577V32.424C30.2402 32.402 30.1302 32.391 30.0129 32.391C29.7635 32.391 29.4922 32.479 29.1989 32.655C28.9055 32.831 28.6965 33.0253 28.5719 33.238V37ZM33.7757 37.132C32.9837 37.132 32.3347 36.8753 31.8287 36.362C31.3227 35.8413 31.0697 35.1667 31.0697 34.338C31.0697 33.5607 31.3191 32.9043 31.8177 32.369C32.3164 31.8263 32.9397 31.555 33.6877 31.555C34.4724 31.555 35.0921 31.8263 35.5467 32.369C36.0087 32.9043 36.2397 33.5827 36.2397 34.404V34.613H31.9387C31.9754 35.1337 32.1661 35.57 32.5107 35.922C32.8554 36.274 33.3027 36.45 33.8527 36.45C34.5127 36.45 35.0591 36.2263 35.4917 35.779L35.8877 36.318C35.3451 36.8607 34.6411 37.132 33.7757 37.132ZM35.4257 34.008C35.4184 33.5533 35.2644 33.1463 34.9637 32.787C34.6631 32.4203 34.2341 32.237 33.6767 32.237C33.1487 32.237 32.7307 32.4167 32.4227 32.776C32.1221 33.1353 31.9607 33.546 31.9387 34.008H35.4257Z" fill="white"/>
<path d="M21.5714 14.5714L28 21M15.8571 16.7143C20.1965 16.7143 23.7143 13.1965 23.7143 8.85714C23.7143 4.51776 20.1965 1 15.8571 1C11.5178 1 8 4.51776 8 8.85714C8 13.1965 11.5178 16.7143 15.8571 16.7143Z" stroke="white" stroke-width="1.5" stroke-linecap="square"/>
</svg>
