<svg width="27" height="40" viewBox="0 0 27 40" fill="none" xmlns="http://www.w3.org/2000/svg">
<path d="M16 0C21.5228 0 26 4.47715 26 10C26 15.5228 21.5228 20 16 20C10.4772 20 6 15.5228 6 10C6 4.47715 10.4772 0 16 0ZM16 5.33333C14.1591 5.33333 12.6667 6.82572 12.6667 8.66667C12.6667 10.0096 13.4681 11.1999 14.6664 11.7223L14.6666 13.1213L14.5666 13.1399C12.6782 13.5141 11.0207 14.6219 9.9428 16.1981C11.5051 17.7255 13.6426 18.6667 16 18.6667C18.357 18.6667 20.4943 17.7257 22.0567 16.199C20.9806 14.6238 19.3248 13.5158 17.4372 13.1412L17.3333 13.122L17.3341 11.7226C18.4867 11.2194 19.2719 10.0987 19.3299 8.81892L19.3333 8.66667C19.3333 6.82572 17.8409 5.33333 16 5.33333ZM16 1.33333C11.2135 1.33333 7.33333 5.21353 7.33333 10C7.33333 11.9364 7.96838 13.7244 9.04157 15.1673C9.98874 13.8916 11.2679 12.9004 12.734 12.3035L12.966 12.2127L12.9507 12.2C11.9927 11.3726 11.3876 10.1696 11.3368 8.84765L11.3333 8.66667C11.3333 6.08934 13.4227 4 16 4C18.5773 4 20.6667 6.08934 20.6667 8.66667C20.6667 9.99609 20.1057 11.2187 19.1836 12.0796L19.0333 12.2133L19.0632 12.2242C20.6144 12.8104 21.9679 13.8335 22.9586 15.1661C24.0318 13.7239 24.6667 11.9361 24.6667 10C24.6667 5.21353 20.7865 1.33333 16 1.33333Z" fill="white" fill-opacity="0.5"/>
<path d="M1.41061 35.68V28.86H2.31261V35.636C2.31261 35.834 2.34195 35.9843 2.40061 36.087C2.46661 36.1823 2.59495 36.23 2.78561 36.23H2.96161V37.055H2.70861C2.22461 37.055 1.88728 36.9267 1.69661 36.67C1.50595 36.4133 1.41061 36.0833 1.41061 35.68ZM8.634 33.942V34.602C8.634 35.3793 8.43234 35.9917 8.029 36.439C7.633 36.8863 7.06467 37.11 6.324 37.11C5.59067 37.11 5.02234 36.8863 4.619 36.439C4.21567 35.9917 4.014 35.3793 4.014 34.602V33.942C4.014 33.1793 4.212 32.5743 4.608 32.127C5.01134 31.6723 5.58334 31.445 6.324 31.445C7.06467 31.445 7.633 31.6723 8.029 32.127C8.43234 32.5743 8.634 33.1793 8.634 33.942ZM7.699 33.942C7.699 33.4213 7.58167 33.0143 7.347 32.721C7.11234 32.4203 6.77134 32.27 6.324 32.27C5.884 32.27 5.543 32.4203 5.301 32.721C5.06634 33.0143 4.949 33.4213 4.949 33.942V34.602C4.949 35.1447 5.06634 35.5627 5.301 35.856C5.543 36.1493 5.884 36.296 6.324 36.296C6.77134 36.296 7.11234 36.1493 7.347 35.856C7.58167 35.5627 7.699 35.1447 7.699 34.602V33.942ZM14.6292 37.682C14.6292 38.2173 14.4092 38.6463 13.9692 38.969C13.5365 39.2917 12.9388 39.453 12.1762 39.453C11.7948 39.453 11.3952 39.4017 10.9772 39.299C10.5665 39.1963 10.1778 39.0313 9.81118 38.804L10.1192 38.1C10.4858 38.3053 10.8378 38.4483 11.1752 38.529C11.5198 38.617 11.8535 38.661 12.1762 38.661C12.6748 38.661 13.0598 38.5803 13.3312 38.419C13.6025 38.2577 13.7382 38.0413 13.7382 37.77C13.7382 37.572 13.6722 37.418 13.5402 37.308C13.4082 37.2053 13.1955 37.154 12.9022 37.154H11.6372C11.1605 37.154 10.8158 37.0403 10.6032 36.813C10.3905 36.5857 10.2842 36.3363 10.2842 36.065C10.2842 35.8743 10.3282 35.6873 10.4162 35.504C10.5042 35.3133 10.6288 35.1263 10.7902 34.943C10.5335 34.789 10.3282 34.58 10.1742 34.316C10.0202 34.0447 9.94318 33.7183 9.94318 33.337C9.94318 32.919 10.0312 32.5707 10.2072 32.292C10.3905 32.0133 10.6325 31.8043 10.9332 31.665C11.2338 31.5183 11.5712 31.445 11.9452 31.445H12.1322C12.3888 31.445 12.6235 31.4817 12.8362 31.555H14.7942V32.358L13.6062 32.193C13.7602 32.325 13.8848 32.49 13.9802 32.688C14.0755 32.8787 14.1232 33.1133 14.1232 33.392C14.1232 33.788 14.0315 34.1217 13.8482 34.393C13.6722 34.6643 13.4338 34.8733 13.1332 35.02C12.8325 35.1593 12.4988 35.229 12.1322 35.229H11.9452C11.8498 35.229 11.7582 35.2253 11.6702 35.218C11.5822 35.2033 11.4942 35.1887 11.4062 35.174C11.1935 35.4087 11.0872 35.6397 11.0872 35.867C11.0872 36.1603 11.2925 36.307 11.7032 36.307H12.9352C13.4632 36.307 13.8775 36.4243 14.1782 36.659C14.4788 36.8937 14.6292 37.2347 14.6292 37.682ZM12.1322 34.448C12.4182 34.448 12.6712 34.3563 12.8912 34.173C13.1112 33.9897 13.2212 33.711 13.2212 33.337C13.2212 32.9703 13.1112 32.6953 12.8912 32.512C12.6712 32.3213 12.4182 32.226 12.1322 32.226H11.9452C11.6518 32.226 11.3952 32.3213 11.1752 32.512C10.9552 32.6953 10.8452 32.9703 10.8452 33.337C10.8452 33.711 10.9552 33.9897 11.1752 34.173C11.3952 34.3563 11.6518 34.448 11.9452 34.448H12.1322ZM19.3405 30.224H18.3285V29.212H19.3405V30.224ZM19.2855 37H18.3835V31.555H19.2855V37ZM23.8482 32.292C23.6429 32.292 23.4009 32.3433 23.1222 32.446C22.8509 32.5487 22.5209 32.7577 22.1322 33.073V37H21.2302V31.555H22.0882V32.314C22.4769 31.984 22.8289 31.7567 23.1442 31.632C23.4669 31.5073 23.7749 31.445 24.0682 31.445C24.5742 31.445 24.9592 31.6063 25.2232 31.929C25.4945 32.2443 25.6302 32.6953 25.6302 33.282V37H24.7282V33.414C24.7282 32.666 24.4349 32.292 23.8482 32.292Z" fill="white"/>
</svg>
