<svg width="139" height="48" viewBox="0 0 139 48" fill="none" xmlns="http://www.w3.org/2000/svg">
<path d="M0 24C0 10.7452 10.6912 0 23.8795 0H115.121C128.309 0 139 10.7452 139 24C139 37.2548 128.309 48 115.121 48H23.8795C10.6912 48 0 37.2548 0 24Z" fill="#2CAF35"/>
<path d="M37.1335 17.3731C37.5345 16.8881 37.7349 16.4403 37.7349 16.0299C37.7349 15.7239 37.6273 15.5037 37.4119 15.3694C37.204 15.2276 36.8625 15.1567 36.3873 15.1567C35.912 15.1567 35.3329 15.2799 34.6498 15.5261C33.9666 15.7649 33.3095 16.0933 32.6784 16.5112C32.0546 16.9291 31.4681 17.4216 30.9186 17.9888C30.3766 18.5485 29.905 19.153 29.5041 19.8022C28.6428 21.1978 28.2121 22.5597 28.2121 23.8881C28.2121 25.2239 28.6762 26.3284 29.6043 27.2015C30.681 28.2164 32.0881 28.7239 33.8256 28.7239C35.6076 28.7239 37.178 28.1866 38.5369 27.1119C39.0863 26.6716 39.5615 26.1418 39.9625 25.5224C40.2966 25.5 40.4637 25.6381 40.4637 25.9366C40.4637 26.056 40.4266 26.2015 40.3523 26.3731C39.7583 27.7836 38.8042 28.9776 37.4899 29.9552C35.5371 31.403 33.3503 32.1269 30.9297 32.1269C29.4298 32.1269 28.1044 31.8022 26.9535 31.153C25.7135 30.459 24.8485 29.4179 24.3584 28.0299C24.106 27.3134 23.9797 26.5448 23.9797 25.7239C23.9797 24.903 24.0874 24.1306 24.3027 23.4067C24.5181 22.6828 24.8188 21.9776 25.2049 21.291C25.5984 20.6045 26.0625 19.9478 26.5971 19.3209C27.1317 18.694 27.7183 18.1082 28.3569 17.5634C29.0029 17.0112 29.6823 16.5149 30.3951 16.0746C31.1154 15.6269 31.8542 15.2463 32.6115 14.9328C34.1931 14.2612 35.6967 13.9254 37.1224 13.9254C38.5703 13.9254 39.5541 14.3358 40.0739 15.1567C40.2595 15.4403 40.3523 15.7612 40.3523 16.1194C40.3523 16.4776 40.2966 16.7873 40.1853 17.0485C40.0739 17.3022 39.9328 17.5224 39.762 17.709C39.4056 18.097 39.0678 18.291 38.7485 18.291C38.4515 18.291 38.0022 18.0634 37.4008 17.6082C37.2671 17.5037 37.178 17.4254 37.1335 17.3731Z" fill="black"/>
<path d="M42.1789 31.5784L41.9562 31.5896C40.783 31.5896 39.8882 31.2985 39.272 30.7164C38.6928 30.1716 38.4032 29.4328 38.4032 28.5C38.4032 27.2164 38.9118 25.9888 39.9291 24.8172C40.9166 23.6828 42.1158 22.8881 43.5266 22.4328C43.4821 22.097 43.6046 21.8209 43.8942 21.6045C44.1021 21.4478 44.4436 21.3694 44.9188 21.3694C45.4015 21.3694 45.8655 21.4142 46.3111 21.5037C46.7566 21.5933 47.2058 21.791 47.6587 22.097C48.6389 22.7463 49.1289 23.6194 49.1289 24.7164C49.1289 25.903 48.8356 27.0299 48.249 28.097C49.5262 27.8209 50.6437 26.9627 51.6015 25.5224C51.9357 25.5 52.1027 25.6381 52.1027 25.9366C52.1027 26.056 52.0656 26.2015 51.9913 26.3731C50.9815 28.7836 48.9619 30.3806 45.9324 31.1642C44.8483 31.4478 43.6157 31.5896 42.2346 31.5896L42.1789 31.5784ZM41.9896 26.6754C41.9896 27.541 42.3497 27.9739 43.07 27.9739C43.6788 27.9739 44.2914 27.6045 44.9077 26.8657C45.5537 26.097 45.8767 25.3172 45.8767 24.5261C45.8767 23.7201 45.4906 23.1866 44.7183 22.9254C43.3892 23.2985 42.5391 24.1343 42.1678 25.4328C42.049 25.8284 41.9896 26.2425 41.9896 26.6754Z" fill="black"/>
<path d="M53.7623 31.5784L53.5395 31.5896C52.3663 31.5896 51.4716 31.2985 50.8553 30.7164C50.2761 30.1716 49.9865 29.4328 49.9865 28.5C49.9865 27.2164 50.4952 25.9888 51.5124 24.8172C52.5 23.6828 53.6991 22.8881 55.1099 22.4328C55.0654 22.097 55.1879 21.8209 55.4775 21.6045C55.6854 21.4478 56.027 21.3694 56.5022 21.3694C56.9848 21.3694 57.4489 21.4142 57.8944 21.5037C58.3399 21.5933 58.7891 21.791 59.2421 22.097C60.2222 22.7463 60.7123 23.6194 60.7123 24.7164C60.7123 25.903 60.419 27.0299 59.8324 28.097C61.1095 27.8209 62.227 26.9627 63.1849 25.5224C63.519 25.5 63.6861 25.6381 63.6861 25.9366C63.6861 26.056 63.6489 26.2015 63.5747 26.3731C62.5649 28.7836 60.5452 30.3806 57.5157 31.1642C56.4316 31.4478 55.199 31.5896 53.818 31.5896L53.7623 31.5784ZM53.5729 26.6754C53.5729 27.541 53.933 27.9739 54.6533 27.9739C55.2622 27.9739 55.8747 27.6045 56.491 26.8657C57.137 26.097 57.46 25.3172 57.46 24.5261C57.46 23.7201 57.0739 23.1866 56.3017 22.9254C54.9726 23.2985 54.1224 24.1343 53.7511 25.4328C53.6323 25.8284 53.5729 26.2425 53.5729 26.6754Z" fill="black"/>
<path d="M70.6583 15.9627C71.4825 15.9627 71.8946 16.6604 71.8946 18.056C71.8946 19.8993 70.7809 21.847 68.5533 23.8993C67.7068 24.6828 66.8158 25.3582 65.8802 25.9254C65.9767 27.0746 66.3963 27.7313 67.1388 27.8955C67.3764 27.9478 67.6548 27.9739 67.9741 27.9739C68.3008 27.9739 68.6498 27.9328 69.0211 27.8507C69.3998 27.7612 69.7747 27.6194 70.146 27.4254C70.9702 27 71.657 26.3657 72.2065 25.5224C72.5406 25.5 72.7077 25.6381 72.7077 25.9366C72.7077 26.056 72.626 26.306 72.4627 26.6866C72.3067 27.0672 72.0134 27.5634 71.5828 28.1754C71.1521 28.7799 70.6361 29.3284 70.0346 29.8209C68.6535 30.9552 67.1202 31.5224 65.4347 31.5224C63.4893 31.5224 62.3124 30.6866 61.904 29.0149C61.7704 28.4925 61.7035 27.9104 61.7035 27.2687C61.7035 26.6194 61.8001 25.9664 61.9931 25.3097C62.1862 24.653 62.446 24.0037 62.7728 23.3619C63.0995 22.7127 63.4782 22.0784 63.9088 21.459C64.3469 20.8396 64.8073 20.2575 65.2899 19.7127C65.78 19.1679 66.2775 18.6679 66.7824 18.2127C67.2873 17.75 67.7774 17.3507 68.2526 17.0149C69.2698 16.3134 70.0717 15.9627 70.6583 15.9627ZM65.8802 24.5709C67.1276 23.7873 68.1783 22.847 69.0322 21.75C69.901 20.6381 70.3353 19.6567 70.3353 18.806C70.3353 18.3806 70.2462 18.0746 70.068 17.8881C70.0086 17.8209 69.9047 17.7873 69.7562 17.7873C69.6077 17.7873 69.3998 17.8843 69.1325 18.0784C68.8651 18.2649 68.5904 18.5224 68.3083 18.8507C68.0261 19.1791 67.7477 19.5672 67.4729 20.0149C67.2056 20.4552 66.9606 20.9254 66.7378 21.4254C66.2478 22.5522 65.9619 23.6007 65.8802 24.5709Z" fill="black"/>
<path d="M86.2847 22.5112C88.1262 23.3769 89.0469 24.6269 89.0469 26.2612C89.0469 27.7239 88.4751 28.9366 87.3316 29.8993C85.8095 31.1828 83.7341 31.8246 81.1056 31.8246C79.1528 31.8246 77.3447 31.4515 75.6815 30.7052C74.0554 29.9739 72.8154 28.9552 71.9615 27.6493C71.3452 26.7015 71.037 25.9254 71.037 25.3209C71.037 25.0896 71.334 24.8918 71.928 24.7276C72.5295 25.5784 73.5987 26.306 75.1357 26.9104C75.6035 26.2836 76.2347 25.3918 77.0292 24.2351C77.8237 23.0784 78.4437 22.1791 78.8892 21.5373C79.3347 20.8881 79.7802 20.2649 80.2257 19.6679C81.2133 18.347 82.0709 17.347 82.7986 16.6679C83.0213 16.444 83.3592 16.4366 83.8121 16.6455C83.9309 16.6978 84.0274 16.7575 84.1017 16.8246C83.4854 17.4515 82.6538 18.6978 81.6068 20.5634C82.2899 20.7276 82.8877 20.8097 83.4 20.8097C83.9123 20.8097 84.421 20.7537 84.9259 20.6418C85.4308 20.5224 85.8912 20.3507 86.307 20.1269C87.2648 19.6269 87.7438 19.0112 87.7438 18.2799C87.7438 16.8545 86.6634 15.8731 84.5026 15.3358C83.6562 15.1194 82.8097 15.0112 81.9632 15.0112C81.1242 15.0112 80.3334 15.0709 79.5909 15.1903C78.8483 15.3022 78.1875 15.4813 77.6083 15.7276C76.3312 16.2724 75.6926 17.0448 75.6926 18.0448C75.6926 18.8881 76.0045 19.597 76.6282 20.1716C75.9525 20.8955 75.4142 21.2575 75.0132 21.2575C74.5529 21.2575 74.1222 21.0075 73.7212 20.5075C73.3129 19.9925 73.1087 19.4291 73.1087 18.8172C73.1087 18.2052 73.2349 17.6679 73.4873 17.2052C73.7472 16.7425 74.0962 16.3321 74.5343 15.9739C74.9724 15.6082 75.4773 15.291 76.049 15.0224C76.6282 14.7537 77.2408 14.5299 77.8868 14.3507C79.1416 14 80.2703 13.8246 81.2727 13.8246C82.2751 13.8246 83.1104 13.8694 83.7787 13.959C84.4544 14.041 85.0967 14.1716 85.7055 14.3507C86.3144 14.5299 86.8787 14.7537 87.3985 15.0224C87.9182 15.291 88.3712 15.6082 88.7573 15.9739C89.5666 16.75 89.9713 17.6791 89.9713 18.7612C89.9713 19.6269 89.6112 20.403 88.8909 21.0896C88.245 21.7239 87.3762 22.1978 86.2847 22.5112ZM77.7086 27.6604C78.5773 27.8321 79.279 27.9179 79.8136 27.9179C80.3482 27.9179 80.8012 27.9067 81.1724 27.8843C81.5437 27.8545 81.9447 27.7799 82.3753 27.6604C82.8134 27.541 83.1884 27.3731 83.5002 27.1567C84.1834 26.694 84.5249 26.0597 84.5249 25.2537C84.5249 24.4701 84.1277 23.8284 83.3332 23.3284C82.6055 22.8731 81.6662 22.6231 80.5153 22.5784C80.2703 23.041 80.0252 23.5037 79.7802 23.9664C79.5352 24.4291 79.2939 24.8806 79.0563 25.3209C78.5513 26.2463 78.1021 27.0261 77.7086 27.6604Z" fill="black"/>
<path d="M94.0812 31.097C94.0812 31.3955 93.8324 31.5448 93.3349 31.5448C92.1024 31.5448 91.2262 31.0522 90.7064 30.0672C90.5134 29.7164 90.4168 29.2985 90.4168 28.8134C90.4168 28.3284 90.4874 27.847 90.6284 27.3694C90.7695 26.8843 90.9589 26.4067 91.1965 25.9366C91.4341 25.4664 91.7088 25.0112 92.0207 24.5709C92.3325 24.1306 92.663 23.7239 93.0119 23.3507C93.747 22.5597 94.445 22.0037 95.1059 21.6828C95.2841 21.6007 95.4437 21.5597 95.5848 21.5597C95.7333 21.5597 95.8558 21.5634 95.9523 21.5709C96.1974 21.5933 96.3793 21.6866 96.4981 21.8507C96.0451 22.8134 95.6739 23.694 95.3843 24.4925C96.706 23.1866 98.243 22.2948 99.9954 21.8172C100.567 21.6604 101.065 21.5821 101.488 21.5821C101.918 21.5821 102.167 21.6642 102.234 21.8284C102.301 21.9851 102.334 22.1306 102.334 22.2649C102.334 22.3993 102.316 22.5821 102.279 22.8134C102.241 23.0373 102.145 23.3507 101.989 23.7537C101.833 24.1567 101.673 24.5634 101.51 24.9739C101.094 26.0187 100.886 26.7313 100.886 27.1119C100.886 27.7687 101.12 28.097 101.588 28.097C102.39 28.097 103.274 27.5672 104.239 26.5075C104.521 26.2015 104.777 25.8731 105.007 25.5224C105.342 25.5 105.509 25.6381 105.509 25.9366C105.509 26.1754 105.356 26.5709 105.052 27.1231C104.747 27.6679 104.454 28.1418 104.172 28.5448C103.897 28.9403 103.585 29.3284 103.236 29.709C102.887 30.0896 102.505 30.4328 102.089 30.7388C101.183 31.403 100.3 31.7351 99.4385 31.7351C98.5771 31.7351 97.9237 31.5075 97.4782 31.0522C97.0327 30.597 96.8099 29.9328 96.8099 29.0597C96.8099 27.7687 97.4782 26.2239 98.8147 24.4254C99.2231 23.8806 99.4013 23.6082 99.3494 23.6082C98.785 23.6082 97.9905 23.9664 96.9659 24.6828C95.9486 25.3993 95.1727 26.1604 94.6381 26.9664C94.2965 28.3619 94.1109 29.7388 94.0812 31.097Z" fill="black"/>
<path d="M108.583 22.5C109.578 21.9104 110.547 21.6157 111.49 21.6157C112.989 21.6157 113.932 22.1903 114.319 23.3396C114.437 23.6903 114.497 24.1269 114.497 24.6493C114.497 25.7836 114.081 26.9515 113.249 28.153C113.947 28.056 114.623 27.7799 115.276 27.3246C115.93 26.8619 116.498 26.2612 116.981 25.5224C117.315 25.5 117.482 25.6381 117.482 25.9366C117.482 26.056 117.445 26.2015 117.37 26.3731C115.96 29.8134 112.533 31.5336 107.09 31.5336H107.068C106.065 31.5336 105.238 31.2388 104.584 30.6493C103.871 30 103.515 29.0933 103.515 27.9291C103.515 26.4963 104.814 23.9067 107.413 20.1604C108.512 18.5634 109.451 17.3172 110.231 16.4216C110.446 16.1754 110.736 16.0522 111.1 16.0522C111.501 16.0522 111.794 16.2015 111.98 16.5C110.45 18.9104 109.318 20.9104 108.583 22.5ZM107.435 25.6007C107.339 26.0709 107.291 26.4664 107.291 26.7873C107.291 27.1082 107.387 27.3806 107.58 27.6045C107.773 27.8209 108.022 27.9291 108.326 27.9291C108.638 27.9291 108.954 27.8769 109.273 27.7724C109.592 27.6604 109.904 27.5112 110.209 27.3246C110.513 27.1381 110.803 26.9216 111.077 26.6754C111.352 26.4216 111.594 26.1493 111.801 25.8582C112.247 25.2313 112.47 24.6381 112.47 24.0784C112.47 23.7201 112.381 23.4478 112.202 23.2612C111.905 22.9478 111.571 22.791 111.2 22.791C110.836 22.791 110.465 22.8694 110.086 23.0261C109.708 23.1754 109.351 23.3806 109.017 23.6418C108.297 24.1866 107.77 24.8396 107.435 25.6007Z" fill="black"/>
</svg>
